<svg width="28" height="28" viewBox="0 0 28 28" fill="none" xmlns="http://www.w3.org/2000/svg">
  <circle cx="14" cy="14" r="14" fill="#0284c7"/>
  <path d="M20 10.5c-.6.3-1.2.5-1.9.6.7-.4 1.2-1.1 1.4-1.9-.6.4-1.3.7-2 .8-.6-.6-1.5-.9-2.4-.7-1.3.3-2.1 1.6-1.8 2.9-2.2-.1-4.1-1.2-5.4-2.9-.7 1.2-.3 2.7.9 3.4-.5 0-1-.2-1.4-.4v.1c0 1.4 1 2.6 2.4 2.9-.4.1-.8.1-1.2.1-.3 0-.6 0-.8-.1.6 1.2 1.9 2 3.3 2-1.3 1-2.9 1.6-4.6 1.6-.3 0-.6 0-.8-.1 1.6 1 3.5 1.6 5.5 1.6 6.6 0 10.2-5.5 10.2-10.2v-.5c.7-.5 1.2-1.1 1.6-1.8z" fill="#fff"/>
</svg>
